# xmcd CD database file
#
# Track frame offsets:
#	150
#	30179
#	50402
#	73316
#	95753
#	110909
#	131708
#	154036
#	170029
#	194082
#	214380
#	231551
#	251606
#	285007
#	305176
#
# Disc length: 4472 seconds
#
# Revision: 5
# Processed by: cddbd v1.5.2PL0 Copyright (c) Steve Scherf et al.
# Submitted via: CDex 1.51
#
DISCID=ec11760f
DTITLE=Popa Chubby - New York City Blues (Again)
DYEAR=2001
DGENRE=Blues
TTITLE0=Popa Chubby_My Last Cigarette
TTITLE1=Irving Louis Lattin_Never Make A Move Too Soon
TTITLE2=Matt Smith_Shelter From The Storm
TTITLE3=Matt Smith_Junkie For Your Love
TTITLE4=Popa Chubby_Fishnet Stocking And A Long Pair Of Legs
TTITLE5=Zach Zunis_Lookey Here!
TTITLE6=Joe Taino_Yo Tengo Blues
TTITLE7=Steve Logan_Dancin' Chickens
TTITLE8=Popa Chubby_Take Off
TTITLE9=Irving Louis Lattin_When You Got A Good Friend
TTITLE10=Joe Taino_Anna Lee
TTITLE11=Joe Taino_Mary Lou
TTITLE12=Lewis Gatewood_Red House
TTITLE13=Zach Zunis_Surf
TTITLE14=Popa Chubby_Dirty Lie (Live Version)
EXTD=YEAR: 2001
EXTT0=
EXTT1=
EXTT2=
EXTT3=
EXTT4=
EXTT5=
EXTT6=
EXTT7=
EXTT8=
EXTT9=
EXTT10=
EXTT11=
EXTT12=
EXTT13=
EXTT14=
PLAYORDER=
